<svg width="93" height="92" viewBox="0 0 93 92" fill="none" xmlns="http://www.w3.org/2000/svg">
<path d="M85 71.5V19.5H66.5V55.5L85 71.5Z" fill="#522785" stroke="#522785"/>
<path d="M19.5 18.5V1H68L84.5 18.5H19.5Z" fill="#29ABE2" stroke="#29ABE2"/>
<path d="M18.5 66.5H1L1 18L18.5 1.5L18.5 66.5Z" fill="#F15A24" stroke="#F15A24"/>
<path d="M17.5 83.5L1.5 67H57.5L73.5 83.5H17.5Z" fill="#FBB03B" stroke="#FBB03B"/>
<rect x="44" y="42.5" width="5" height="5" fill="#FBB03B"/>
<rect x="43" y="57.5" width="4" height="4" fill="#FBB03B"/>
<rect x="69" y="72.5" width="4" height="4" fill="#522785"/>
<rect x="79" y="54.5" width="3" height="3" fill="white"/>
<rect x="47" y="72.5" width="3" height="3" fill="white"/>
<rect x="62" y="58" width="5" height="5" fill="#FBB03B"/>
<rect x="71" y="48.5" width="5" height="5" fill="white"/>
<rect x="59" y="75.5" width="5" height="5" fill="white"/>
<rect x="88" y="70.5" width="5" height="5" fill="#522785"/>
<rect x="73" y="86.5" width="5" height="5" fill="#522785"/>
<rect x="59" y="40.5" width="6" height="6" fill="#FBB03B"/>
<rect x="87" y="85.5" width="6" height="6" fill="#522785"/>
<rect x="52" y="50.5" width="7" height="7" fill="#FBB03B"/>
<rect x="77" y="75.5" width="7" height="7" fill="#522785"/>
<rect x="55" y="65.5" width="7" height="7" fill="white"/>
<rect x="56" y="64.5" width="7" height="7" fill="#FBB03B"/>
<rect x="74" y="63.5" width="7" height="7" fill="white"/>
<rect x="73" y="64.5" width="7" height="7" fill="#522785"/>
</svg>
